<svg width="671" height="261" viewBox="0 0 671 261" fill="none" xmlns="http://www.w3.org/2000/svg">
<path d="M16.6461 2.49998C20.4461 2.49998 23.8461 3.49999 26.8461 5.5C30.0461 7.5 31.9461 11 32.5461 16C34.9461 31.8 36.4461 47.6 37.0461 63.4C37.8461 79 38.2461 96.7 38.2461 116.5C38.2461 124.9 37.5461 140.2 36.1461 162.4C44.9461 163.2 51.7461 163.6 56.5461 163.6C59.9461 163.6 67.6461 163.1 79.6461 162.1C86.6461 161.1 92.7461 160.6 97.9461 160.6C102.746 160.6 107.146 161.1 111.146 162.1C115.146 162.9 119.246 164.3 123.446 166.3C127.646 168.7 129.746 172.4 129.746 177.4C129.746 181.4 128.446 185 125.846 188.2C123.446 191.4 120.546 193 117.146 193C114.746 193 110.946 192.6 105.746 191.8C96.3461 190.4 87.3461 189.7 78.7461 189.7C75.9461 189.7 72.7461 189.9 69.1461 190.3C65.7461 190.5 63.2461 190.6 61.6461 190.6C56.8461 191.2 52.0461 191.5 47.2461 191.5C37.4461 191.5 28.6461 191 20.8461 190C16.8461 189.6 12.8461 188.1 8.84609 185.5C4.8461 182.7 2.8461 178.7 2.8461 173.5C2.8461 170.5 3.2461 162.8 4.04609 150.4C5.4461 129.8 6.1461 114.1 6.1461 103.3C6.1461 94.9 5.7461 86.1 4.9461 76.9C4.1461 67.7 3.6461 61.9 3.44609 59.5C1.64609 42.5 0.746094 28.5 0.746094 17.5C0.746094 12.3 1.94609 8.5 4.34609 6.09999C6.9461 3.69999 11.0461 2.49998 16.6461 2.49998ZM265.911 96.7C267.511 99.5 268.811 103.6 269.811 109C270.811 114.2 271.311 118.9 271.311 123.1C271.311 130.9 269.611 142 266.211 156.4C252.411 181.6 232.011 194.2 205.011 194.2C195.011 194.2 184.811 190.9 174.411 184.3C164.011 177.7 156.811 170.1 152.811 161.5C147.411 144.3 144.711 133.4 144.711 128.8C144.711 120.8 146.411 112.3 149.811 103.3C153.411 94.3 157.911 86.5 163.311 79.9C166.711 75.3 172.811 71.4 181.611 68.2C190.411 64.8 198.411 63.1 205.611 63.1C219.611 63.1 231.511 65.8 241.311 71.2C251.111 76.4 259.311 84.9 265.911 96.7ZM239.811 145C240.811 142.4 241.311 135.7 241.311 124.9C241.311 119.1 240.211 113.4 238.011 107.8C236.011 102.2 233.011 97.4 229.011 93.4C228.611 93 227.511 92.4 225.711 91.6C223.911 90.6 221.411 89.7 218.211 88.9C215.211 87.9 211.711 87.4 207.711 87.4C196.511 87.4 188.311 91.9 183.111 100.9C177.911 109.9 175.311 120.1 175.311 131.5C175.311 133.5 175.811 137.3 176.811 142.9C178.011 148.5 179.011 152 179.811 153.4C180.411 154.8 181.911 156.8 184.311 159.4C186.911 161.8 190.011 164 193.611 166C197.411 167.8 201.311 168.7 205.311 168.7C214.311 168.7 221.511 166.6 226.911 162.4C232.311 158 236.611 152.2 239.811 145ZM408.927 192.4C414.327 196.2 417.927 200.4 419.727 205C421.727 209.6 422.727 216 422.727 224.2C422.727 228.2 421.527 232.2 419.127 236.2C416.927 240.2 414.627 243.1 412.227 244.9C393.227 255.3 374.227 260.5 355.227 260.5C345.827 260.5 337.727 259.3 330.927 256.9C324.127 254.5 317.727 251.3 311.727 247.3C307.727 244.3 304.427 240.1 301.827 234.7C299.427 229.5 298.227 224.3 298.227 219.1C298.227 211.9 300.427 205.6 304.827 200.2C309.427 194.8 315.527 190.9 323.127 188.5C321.727 185.5 321.027 182 321.027 178C321.027 174.2 323.827 168.5 329.427 160.9C319.827 157.7 312.227 152 306.627 143.8C301.227 135.6 298.527 126 298.527 115C298.527 108.2 300.127 102.2 303.327 97C306.527 91.6 311.327 85.4 317.727 78.4C322.127 73.6 327.727 70.1 334.527 67.9C341.327 65.7 349.827 64.6 360.027 64.6C367.227 64.6 376.127 66.2 386.727 69.4C399.327 60.6 410.427 56.2 420.027 56.2C422.427 56.2 425.127 56.8 428.127 58C431.327 59.2 433.727 60.4 435.327 61.6C436.527 63.8 437.127 67.5 437.127 72.7C437.127 74.7 436.227 76.7 434.427 78.7C432.827 80.5 430.727 81.4 428.127 81.4L420.927 81.1C417.327 80.7 414.527 80.5 412.527 80.5C410.327 80.5 407.027 80.7 402.627 81.1C406.827 86.1 410.027 91.4 412.227 97C414.627 102.6 415.827 109.9 415.827 118.9C415.827 125.7 413.327 132.8 408.327 140.2C403.327 147.6 397.427 153.4 390.627 157.6C380.227 163.2 368.127 166.1 354.327 166.3C352.727 167.9 351.327 169.4 350.127 170.8C349.127 172 348.627 173 348.627 173.8C348.627 176 350.527 177.7 354.327 178.9C358.127 180.1 363.927 181 371.727 181.6C377.727 182 384.327 183.3 391.527 185.5C398.927 187.5 404.727 189.8 408.927 192.4ZM356.127 141.7C365.327 141.7 372.727 139.2 378.327 134.2C383.927 129.2 386.727 122.1 386.727 112.9C386.727 105.9 384.227 100.2 379.227 95.8C374.227 91.4 367.827 89.2 360.027 89.2C355.027 89.2 349.627 90.1 343.827 91.9C338.227 93.5 334.227 96.1 331.827 99.7C330.627 101.3 329.427 104.4 328.227 109C327.027 113.4 326.427 116.8 326.427 119.2C326.427 122.6 327.827 126.1 330.627 129.7C333.627 133.1 337.427 136 342.027 138.4C346.827 140.6 351.527 141.7 356.127 141.7ZM375.027 206.8C364.027 205.8 356.227 204.8 351.627 203.8C347.227 203 343.627 202 340.827 200.8C330.627 206.2 325.527 212.1 325.527 218.5C325.527 224.5 328.627 229 334.827 232C341.027 235.2 348.127 236.8 356.127 236.8C359.727 236.8 364.627 236.4 370.827 235.6C377.027 234.8 382.227 233.4 386.427 231.4C389.227 230 391.327 228.6 392.727 227.2C394.127 226 394.827 223.7 394.827 220.3C394.827 216.1 392.627 212.9 388.227 210.7C383.827 208.5 379.427 207.2 375.027 206.8ZM469.735 0.399994C476.735 0.999986 482.835 2.89999 488.035 6.09999C493.235 9.09999 495.835 13.7 495.835 19.9C495.835 24.5 493.635 28.2 489.235 31C485.035 33.6 479.935 34.9 473.935 34.9C468.135 34.9 464.135 33.4 461.935 30.4C459.735 27.4 458.635 24.3 458.635 21.1C458.635 15.1 459.235 10.1 460.435 6.09999C461.835 2.1 464.935 0.199997 469.735 0.399994ZM493.735 133.3V142C493.735 149.8 493.935 157.2 494.335 164.2C494.935 171 495.635 177.9 496.435 184.9C496.435 187.3 495.035 189.5 492.235 191.5C489.435 193.3 486.835 194.2 484.435 194.2C480.635 194.2 476.735 193.5 472.735 192.1C468.935 190.5 466.635 188.6 465.835 186.4C464.635 180 464.035 174.3 464.035 169.3C464.035 152.9 463.535 134.5 462.535 114.1C461.735 96.1 461.335 83.5 461.335 76.3C461.335 72.7 463.135 69.6 466.735 67C470.335 64.4 474.135 63.1 478.135 63.1C483.935 63.1 487.935 64.4 490.135 67C492.535 69.6 493.735 73.7 493.735 79.3V133.3ZM528.793 87.4C527.193 86.2 525.893 85 524.893 83.8C523.893 82.4 523.393 80 523.393 76.6C523.393 72.8 524.693 69.9 527.293 67.9C530.093 65.7 533.293 64.6 536.893 64.6C543.893 64.6 549.893 66.4 554.893 70C560.093 73.6 563.893 78.6 566.293 85C570.693 76.8 576.293 71.2 583.093 68.2C589.893 65 599.293 63.4 611.293 63.4C616.093 63.4 620.993 64.9 625.993 67.9C631.193 70.7 635.893 74.2 640.093 78.4C643.493 82.8 646.393 88.3 648.793 94.9C651.193 101.3 652.393 107.1 652.393 112.3C652.393 115.3 652.193 120.2 651.793 127C651.393 134.2 651.193 139.9 651.193 144.1C651.193 158.1 653.893 166.7 659.293 169.9C660.093 170.3 661.593 170.8 663.793 171.4C665.993 172 667.593 172.6 668.593 173.2C669.793 173.8 670.393 174.7 670.393 175.9C670.593 180.7 668.793 184.7 664.993 187.9C661.393 190.9 656.993 192.4 651.793 192.4C643.993 192.4 637.893 190.3 633.493 186.1C629.093 181.9 625.993 175.5 624.193 166.9C623.193 163.7 622.693 159 622.693 152.8C622.693 149.4 622.893 143.9 623.293 136.3C623.893 130.3 624.193 123.9 624.193 117.1C624.193 110.1 622.193 104 618.193 98.8C614.193 93.4 608.693 90.7 601.693 90.7C597.493 90.7 593.093 92 588.493 94.6C583.893 97 580.693 100 578.893 103.6C575.893 109.8 573.893 116.1 572.893 122.5C570.493 134.9 569.293 146.8 569.293 158.2C569.293 161 569.493 166.4 569.893 174.4C569.893 175 569.893 176.5 569.893 178.9C569.893 181.1 569.593 183.2 568.993 185.2C568.593 187.2 567.793 189 566.593 190.6C565.793 191.4 564.293 192.2 562.093 193C559.893 193.8 557.993 194.2 556.393 194.2C553.593 194.2 550.093 193 545.893 190.6C541.693 188.2 539.193 185.5 538.393 182.5L538.093 178.3C538.093 176.7 538.293 174.3 538.693 171.1C541.093 157.1 542.293 144.9 542.293 134.5C542.293 129.9 542.193 126.4 541.993 124L541.693 110.2C541.693 106 540.493 102 538.093 98.2C535.693 94.2 532.593 90.6 528.793 87.4Z" fill="white"/>
</svg>
